<svg xmlns="http://www.w3.org/2000/svg" xmlns:xlink="http://www.w3.org/1999/xlink" width="1920" zoomAndPan="magnify" viewBox="0 0 1440 809.999993" height="1080" preserveAspectRatio="xMidYMid meet" version="1.2"><defs><linearGradient x1="210" gradientTransform="matrix(0.75,0,0,0.75,0.00000622222,0.00002)" y1="-210" x2="1709.999937" gradientUnits="userSpaceOnUse" y2="1289.999937" id="4ef17352e4"><stop style="stop-color:#dfeffa;stop-opacity:1;" offset="0"/><stop style="stop-color:#dfeffa;stop-opacity:1;" offset="0.00390625"/><stop style="stop-color:#deeefa;stop-opacity:1;" offset="0.0078125"/><stop style="stop-color:#ddeefa;stop-opacity:1;" offset="0.0117188"/><stop style="stop-color:#ddedfa;stop-opacity:1;" offset="0.015625"/><stop style="stop-color:#dcedf9;stop-opacity:1;" offset="0.0195312"/><stop style="stop-color:#dcecf9;stop-opacity:1;" offset="0.0234375"/><stop style="stop-color:#dbecf9;stop-opacity:1;" offset="0.0273438"/><stop style="stop-color:#daecf9;stop-opacity:1;" offset="0.03125"/><stop style="stop-color:#daebf9;stop-opacity:1;" offset="0.0351562"/><stop style="stop-color:#d9ebf9;stop-opacity:1;" offset="0.0390625"/><stop style="stop-color:#d9eaf9;stop-opacity:1;" offset="0.0429688"/><stop style="stop-color:#d8eaf9;stop-opacity:1;" offset="0.046875"/><stop style="stop-color:#d8eaf9;stop-opacity:1;" offset="0.0507812"/><stop style="stop-color:#d7e9f9;stop-opacity:1;" offset="0.0546875"/><stop style="stop-color:#d6e9f8;stop-opacity:1;" offset="0.0585938"/><stop style="stop-color:#d6e8f8;stop-opacity:1;" offset="0.0625"/><stop style="stop-color:#d5e8f8;stop-opacity:1;" offset="0.0664062"/><stop style="stop-color:#d5e7f8;stop-opacity:1;" offset="0.0703125"/><stop style="stop-color:#d4e7f8;stop-opacity:1;" offset="0.0742188"/><stop style="stop-color:#d4e7f8;stop-opacity:1;" offset="0.078125"/><stop style="stop-color:#d3e6f8;stop-opacity:1;" offset="0.0820312"/><stop style="stop-color:#d2e6f8;stop-opacity:1;" offset="0.0859375"/><stop style="stop-color:#d2e5f8;stop-opacity:1;" offset="0.0898438"/><stop style="stop-color:#d1e5f8;stop-opacity:1;" offset="0.09375"/><stop style="stop-color:#d1e5f7;stop-opacity:1;" offset="0.0976562"/><stop style="stop-color:#d0e4f7;stop-opacity:1;" offset="0.101562"/><stop style="stop-color:#cfe4f7;stop-opacity:1;" offset="0.105469"/><stop style="stop-color:#cfe3f7;stop-opacity:1;" offset="0.109375"/><stop style="stop-color:#cee3f7;stop-opacity:1;" offset="0.113281"/><stop style="stop-color:#cee3f7;stop-opacity:1;" offset="0.117188"/><stop style="stop-color:#cde2f7;stop-opacity:1;" offset="0.121094"/><stop style="stop-color:#cde2f7;stop-opacity:1;" offset="0.125"/><stop style="stop-color:#cce1f7;stop-opacity:1;" offset="0.128906"/><stop style="stop-color:#cbe1f7;stop-opacity:1;" offset="0.132812"/><stop style="stop-color:#cbe0f6;stop-opacity:1;" offset="0.136719"/><stop style="stop-color:#cae0f6;stop-opacity:1;" offset="0.140625"/><stop style="stop-color:#cae0f6;stop-opacity:1;" offset="0.144531"/><stop style="stop-color:#c9dff6;stop-opacity:1;" offset="0.148438"/><stop style="stop-color:#c9dff6;stop-opacity:1;" offset="0.152344"/><stop style="stop-color:#c8def6;stop-opacity:1;" offset="0.15625"/><stop style="stop-color:#c7def6;stop-opacity:1;" offset="0.160156"/><stop style="stop-color:#c7def6;stop-opacity:1;" offset="0.164062"/><stop style="stop-color:#c6ddf6;stop-opacity:1;" offset="0.167969"/><stop style="stop-color:#c6ddf6;stop-opacity:1;" offset="0.171875"/><stop style="stop-color:#c5dcf6;stop-opacity:1;" offset="0.175781"/><stop style="stop-color:#c5dcf5;stop-opacity:1;" offset="0.179688"/><stop style="stop-color:#c4dcf5;stop-opacity:1;" offset="0.183594"/><stop style="stop-color:#c3dbf5;stop-opacity:1;" offset="0.1875"/><stop style="stop-color:#c3dbf5;stop-opacity:1;" offset="0.191406"/><stop style="stop-color:#c2daf5;stop-opacity:1;" offset="0.195312"/><stop style="stop-color:#c2daf5;stop-opacity:1;" offset="0.199219"/><stop style="stop-color:#c1d9f5;stop-opacity:1;" offset="0.203125"/><stop style="stop-color:#c0d9f5;stop-opacity:1;" offset="0.207031"/><stop style="stop-color:#c0d9f5;stop-opacity:1;" offset="0.210938"/><stop style="stop-color:#bfd8f5;stop-opacity:1;" offset="0.214844"/><stop style="stop-color:#bfd8f4;stop-opacity:1;" offset="0.21875"/><stop style="stop-color:#bed7f4;stop-opacity:1;" offset="0.222656"/><stop style="stop-color:#bed7f4;stop-opacity:1;" offset="0.226562"/><stop style="stop-color:#bdd7f4;stop-opacity:1;" offset="0.230469"/><stop style="stop-color:#bcd6f4;stop-opacity:1;" offset="0.234375"/><stop style="stop-color:#bcd6f4;stop-opacity:1;" offset="0.238281"/><stop style="stop-color:#bbd5f4;stop-opacity:1;" offset="0.242188"/><stop style="stop-color:#bbd5f4;stop-opacity:1;" offset="0.246094"/><stop style="stop-color:#bad4f4;stop-opacity:1;" offset="0.25"/><stop style="stop-color:#bad4f4;stop-opacity:1;" offset="0.253906"/><stop style="stop-color:#b9d4f3;stop-opacity:1;" offset="0.257812"/><stop style="stop-color:#b8d3f3;stop-opacity:1;" offset="0.261719"/><stop style="stop-color:#b8d3f3;stop-opacity:1;" offset="0.265625"/><stop style="stop-color:#b7d2f3;stop-opacity:1;" offset="0.269531"/><stop style="stop-color:#b7d2f3;stop-opacity:1;" offset="0.273438"/><stop style="stop-color:#b6d2f3;stop-opacity:1;" offset="0.277344"/><stop style="stop-color:#b5d1f3;stop-opacity:1;" offset="0.28125"/><stop style="stop-color:#b5d1f3;stop-opacity:1;" offset="0.285156"/><stop style="stop-color:#b4d0f3;stop-opacity:1;" offset="0.289062"/><stop style="stop-color:#b4d0f3;stop-opacity:1;" offset="0.292969"/><stop style="stop-color:#b3d0f2;stop-opacity:1;" offset="0.296875"/><stop style="stop-color:#b3cff2;stop-opacity:1;" offset="0.300781"/><stop style="stop-color:#b2cff2;stop-opacity:1;" offset="0.304688"/><stop style="stop-color:#b1cef2;stop-opacity:1;" offset="0.308594"/><stop style="stop-color:#b1cef2;stop-opacity:1;" offset="0.3125"/><stop style="stop-color:#b0cdf2;stop-opacity:1;" offset="0.316406"/><stop style="stop-color:#b0cdf2;stop-opacity:1;" offset="0.320312"/><stop style="stop-color:#afcdf2;stop-opacity:1;" offset="0.324219"/><stop style="stop-color:#afccf2;stop-opacity:1;" offset="0.328125"/><stop style="stop-color:#aeccf2;stop-opacity:1;" offset="0.332031"/><stop style="stop-color:#adcbf2;stop-opacity:1;" offset="0.335938"/><stop style="stop-color:#adcbf1;stop-opacity:1;" offset="0.339844"/><stop style="stop-color:#accbf1;stop-opacity:1;" offset="0.34375"/><stop style="stop-color:#accaf1;stop-opacity:1;" offset="0.347656"/><stop style="stop-color:#abcaf1;stop-opacity:1;" offset="0.351562"/><stop style="stop-color:#aac9f1;stop-opacity:1;" offset="0.355469"/><stop style="stop-color:#aac9f1;stop-opacity:1;" offset="0.359375"/><stop style="stop-color:#a9c8f1;stop-opacity:1;" offset="0.363281"/><stop style="stop-color:#a9c8f1;stop-opacity:1;" offset="0.367188"/><stop style="stop-color:#a8c8f1;stop-opacity:1;" offset="0.371094"/><stop style="stop-color:#a8c7f1;stop-opacity:1;" offset="0.375"/><stop style="stop-color:#a7c7f0;stop-opacity:1;" offset="0.378906"/><stop style="stop-color:#a6c6f0;stop-opacity:1;" offset="0.382812"/><stop style="stop-color:#a6c6f0;stop-opacity:1;" offset="0.386719"/><stop style="stop-color:#a5c6f0;stop-opacity:1;" offset="0.390625"/><stop style="stop-color:#a5c5f0;stop-opacity:1;" offset="0.394531"/><stop style="stop-color:#a4c5f0;stop-opacity:1;" offset="0.398438"/><stop style="stop-color:#a4c4f0;stop-opacity:1;" offset="0.402344"/><stop style="stop-color:#a3c4f0;stop-opacity:1;" offset="0.40625"/><stop style="stop-color:#a2c4f0;stop-opacity:1;" offset="0.410156"/><stop style="stop-color:#a2c3f0;stop-opacity:1;" offset="0.414062"/><stop style="stop-color:#a1c3ef;stop-opacity:1;" offset="0.417969"/><stop style="stop-color:#a1c2ef;stop-opacity:1;" offset="0.421875"/><stop style="stop-color:#a0c2ef;stop-opacity:1;" offset="0.425781"/><stop style="stop-color:#9fc1ef;stop-opacity:1;" offset="0.429688"/><stop style="stop-color:#9fc1ef;stop-opacity:1;" offset="0.433594"/><stop style="stop-color:#9ec1ef;stop-opacity:1;" offset="0.4375"/><stop style="stop-color:#9ec0ef;stop-opacity:1;" offset="0.441406"/><stop style="stop-color:#9dc0ef;stop-opacity:1;" offset="0.445312"/><stop style="stop-color:#9dbfef;stop-opacity:1;" offset="0.449219"/><stop style="stop-color:#9cbfef;stop-opacity:1;" offset="0.453125"/><stop style="stop-color:#9bbfee;stop-opacity:1;" offset="0.457031"/><stop style="stop-color:#9bbeee;stop-opacity:1;" offset="0.460938"/><stop style="stop-color:#9abeee;stop-opacity:1;" offset="0.464844"/><stop style="stop-color:#9abdee;stop-opacity:1;" offset="0.46875"/><stop style="stop-color:#99bdee;stop-opacity:1;" offset="0.472656"/><stop style="stop-color:#99bcee;stop-opacity:1;" offset="0.476562"/><stop style="stop-color:#98bcee;stop-opacity:1;" offset="0.480469"/><stop style="stop-color:#97bcee;stop-opacity:1;" offset="0.484375"/><stop style="stop-color:#97bbee;stop-opacity:1;" offset="0.488281"/><stop style="stop-color:#96bbee;stop-opacity:1;" offset="0.492188"/><stop style="stop-color:#96baee;stop-opacity:1;" offset="0.496094"/><stop style="stop-color:#95baed;stop-opacity:1;" offset="0.5"/><stop style="stop-color:#94baed;stop-opacity:1;" offset="0.503906"/><stop style="stop-color:#94b9ed;stop-opacity:1;" offset="0.507812"/><stop style="stop-color:#93b9ed;stop-opacity:1;" offset="0.511719"/><stop style="stop-color:#93b8ed;stop-opacity:1;" offset="0.515625"/><stop style="stop-color:#92b8ed;stop-opacity:1;" offset="0.519531"/><stop style="stop-color:#92b8ed;stop-opacity:1;" offset="0.523438"/><stop style="stop-color:#91b7ed;stop-opacity:1;" offset="0.527344"/><stop style="stop-color:#90b7ed;stop-opacity:1;" offset="0.53125"/><stop style="stop-color:#90b6ed;stop-opacity:1;" offset="0.535156"/><stop style="stop-color:#8fb6ec;stop-opacity:1;" offset="0.539062"/><stop style="stop-color:#8fb5ec;stop-opacity:1;" offset="0.542969"/><stop style="stop-color:#8eb5ec;stop-opacity:1;" offset="0.546875"/><stop style="stop-color:#8eb5ec;stop-opacity:1;" offset="0.550781"/><stop style="stop-color:#8db4ec;stop-opacity:1;" offset="0.554688"/><stop style="stop-color:#8cb4ec;stop-opacity:1;" offset="0.558594"/><stop style="stop-color:#8cb3ec;stop-opacity:1;" offset="0.5625"/><stop style="stop-color:#8bb3ec;stop-opacity:1;" offset="0.566406"/><stop style="stop-color:#8bb3ec;stop-opacity:1;" offset="0.570312"/><stop style="stop-color:#8ab2ec;stop-opacity:1;" offset="0.574219"/><stop style="stop-color:#89b2eb;stop-opacity:1;" offset="0.578125"/><stop style="stop-color:#89b1eb;stop-opacity:1;" offset="0.582031"/><stop style="stop-color:#88b1eb;stop-opacity:1;" offset="0.585938"/><stop style="stop-color:#88b1eb;stop-opacity:1;" offset="0.589844"/><stop style="stop-color:#87b0eb;stop-opacity:1;" offset="0.59375"/><stop style="stop-color:#87b0eb;stop-opacity:1;" offset="0.597656"/><stop style="stop-color:#86afeb;stop-opacity:1;" offset="0.601562"/><stop style="stop-color:#85afeb;stop-opacity:1;" offset="0.605469"/><stop style="stop-color:#85aeeb;stop-opacity:1;" offset="0.609375"/><stop style="stop-color:#84aeeb;stop-opacity:1;" offset="0.613281"/><stop style="stop-color:#84aeea;stop-opacity:1;" offset="0.617188"/><stop style="stop-color:#83adea;stop-opacity:1;" offset="0.621094"/><stop style="stop-color:#83adea;stop-opacity:1;" offset="0.625"/><stop style="stop-color:#82acea;stop-opacity:1;" offset="0.628906"/><stop style="stop-color:#81acea;stop-opacity:1;" offset="0.632812"/><stop style="stop-color:#81acea;stop-opacity:1;" offset="0.636719"/><stop style="stop-color:#80abea;stop-opacity:1;" offset="0.640625"/><stop style="stop-color:#80abea;stop-opacity:1;" offset="0.644531"/><stop style="stop-color:#7faaea;stop-opacity:1;" offset="0.648438"/><stop style="stop-color:#7eaaea;stop-opacity:1;" offset="0.652344"/><stop style="stop-color:#7ea9e9;stop-opacity:1;" offset="0.65625"/><stop style="stop-color:#7da9e9;stop-opacity:1;" offset="0.660156"/><stop style="stop-color:#7da9e9;stop-opacity:1;" offset="0.664062"/><stop style="stop-color:#7ca8e9;stop-opacity:1;" offset="0.667969"/><stop style="stop-color:#7ca8e9;stop-opacity:1;" offset="0.671875"/><stop style="stop-color:#7ba7e9;stop-opacity:1;" offset="0.675781"/><stop style="stop-color:#7aa7e9;stop-opacity:1;" offset="0.679688"/><stop style="stop-color:#7aa7e9;stop-opacity:1;" offset="0.683594"/><stop style="stop-color:#79a6e9;stop-opacity:1;" offset="0.6875"/><stop style="stop-color:#79a6e9;stop-opacity:1;" offset="0.691406"/><stop style="stop-color:#78a5e9;stop-opacity:1;" offset="0.695312"/><stop style="stop-color:#78a5e8;stop-opacity:1;" offset="0.699219"/><stop style="stop-color:#77a5e8;stop-opacity:1;" offset="0.703125"/><stop style="stop-color:#76a4e8;stop-opacity:1;" offset="0.707031"/><stop style="stop-color:#76a4e8;stop-opacity:1;" offset="0.710938"/><stop style="stop-color:#75a3e8;stop-opacity:1;" offset="0.714844"/><stop style="stop-color:#75a3e8;stop-opacity:1;" offset="0.71875"/><stop style="stop-color:#74a2e8;stop-opacity:1;" offset="0.722656"/><stop style="stop-color:#73a2e8;stop-opacity:1;" offset="0.726562"/><stop style="stop-color:#73a2e8;stop-opacity:1;" offset="0.730469"/><stop style="stop-color:#72a1e8;stop-opacity:1;" offset="0.734375"/><stop style="stop-color:#72a1e7;stop-opacity:1;" offset="0.738281"/><stop style="stop-color:#71a0e7;stop-opacity:1;" offset="0.742188"/><stop style="stop-color:#71a0e7;stop-opacity:1;" offset="0.746094"/><stop style="stop-color:#70a0e7;stop-opacity:1;" offset="0.75"/><stop style="stop-color:#6f9fe7;stop-opacity:1;" offset="0.753906"/><stop style="stop-color:#6f9fe7;stop-opacity:1;" offset="0.757812"/><stop style="stop-color:#6e9ee7;stop-opacity:1;" offset="0.761719"/><stop style="stop-color:#6e9ee7;stop-opacity:1;" offset="0.765625"/><stop style="stop-color:#6d9de7;stop-opacity:1;" offset="0.769531"/><stop style="stop-color:#6d9de7;stop-opacity:1;" offset="0.773438"/><stop style="stop-color:#6c9de6;stop-opacity:1;" offset="0.777344"/><stop style="stop-color:#6b9ce6;stop-opacity:1;" offset="0.78125"/><stop style="stop-color:#6b9ce6;stop-opacity:1;" offset="0.785156"/><stop style="stop-color:#6a9be6;stop-opacity:1;" offset="0.789062"/><stop style="stop-color:#6a9be6;stop-opacity:1;" offset="0.792969"/><stop style="stop-color:#699be6;stop-opacity:1;" offset="0.796875"/><stop style="stop-color:#689ae6;stop-opacity:1;" offset="0.800781"/><stop style="stop-color:#689ae6;stop-opacity:1;" offset="0.804688"/><stop style="stop-color:#6799e6;stop-opacity:1;" offset="0.808594"/><stop style="stop-color:#6799e6;stop-opacity:1;" offset="0.8125"/><stop style="stop-color:#6699e5;stop-opacity:1;" offset="0.816406"/><stop style="stop-color:#6698e5;stop-opacity:1;" offset="0.820312"/><stop style="stop-color:#6598e5;stop-opacity:1;" offset="0.824219"/><stop style="stop-color:#6497e5;stop-opacity:1;" offset="0.828125"/><stop style="stop-color:#6497e5;stop-opacity:1;" offset="0.832031"/><stop style="stop-color:#6396e5;stop-opacity:1;" offset="0.835938"/><stop style="stop-color:#6396e5;stop-opacity:1;" offset="0.839844"/><stop style="stop-color:#6296e5;stop-opacity:1;" offset="0.84375"/><stop style="stop-color:#6295e5;stop-opacity:1;" offset="0.847656"/><stop style="stop-color:#6195e5;stop-opacity:1;" offset="0.851562"/><stop style="stop-color:#6094e5;stop-opacity:1;" offset="0.855469"/><stop style="stop-color:#6094e4;stop-opacity:1;" offset="0.859375"/><stop style="stop-color:#5f94e4;stop-opacity:1;" offset="0.863281"/><stop style="stop-color:#5f93e4;stop-opacity:1;" offset="0.867188"/><stop style="stop-color:#5e93e4;stop-opacity:1;" offset="0.871094"/><stop style="stop-color:#5d92e4;stop-opacity:1;" offset="0.875"/><stop style="stop-color:#5d92e4;stop-opacity:1;" offset="0.878906"/><stop style="stop-color:#5c92e4;stop-opacity:1;" offset="0.882812"/><stop style="stop-color:#5c91e4;stop-opacity:1;" offset="0.886719"/><stop style="stop-color:#5b91e4;stop-opacity:1;" offset="0.890625"/><stop style="stop-color:#5b90e4;stop-opacity:1;" offset="0.894531"/><stop style="stop-color:#5a90e3;stop-opacity:1;" offset="0.898438"/><stop style="stop-color:#598fe3;stop-opacity:1;" offset="0.902344"/><stop style="stop-color:#598fe3;stop-opacity:1;" offset="0.90625"/><stop style="stop-color:#588fe3;stop-opacity:1;" offset="0.910156"/><stop style="stop-color:#588ee3;stop-opacity:1;" offset="0.914062"/><stop style="stop-color:#578ee3;stop-opacity:1;" offset="0.917969"/><stop style="stop-color:#578de3;stop-opacity:1;" offset="0.921875"/><stop style="stop-color:#568de3;stop-opacity:1;" offset="0.925781"/><stop style="stop-color:#558de3;stop-opacity:1;" offset="0.929688"/><stop style="stop-color:#558ce3;stop-opacity:1;" offset="0.933594"/><stop style="stop-color:#548ce2;stop-opacity:1;" offset="0.9375"/><stop style="stop-color:#548be2;stop-opacity:1;" offset="0.941406"/><stop style="stop-color:#538be2;stop-opacity:1;" offset="0.945312"/><stop style="stop-color:#528ae2;stop-opacity:1;" offset="0.949219"/><stop style="stop-color:#528ae2;stop-opacity:1;" offset="0.953125"/><stop style="stop-color:#518ae2;stop-opacity:1;" offset="0.957031"/><stop style="stop-color:#5189e2;stop-opacity:1;" offset="0.960938"/><stop style="stop-color:#5089e2;stop-opacity:1;" offset="0.964844"/><stop style="stop-color:#5088e2;stop-opacity:1;" offset="0.96875"/><stop style="stop-color:#4f88e2;stop-opacity:1;" offset="0.972656"/><stop style="stop-color:#4e88e1;stop-opacity:1;" offset="0.976562"/><stop style="stop-color:#4e87e1;stop-opacity:1;" offset="0.980469"/><stop style="stop-color:#4d87e1;stop-opacity:1;" offset="0.984375"/><stop style="stop-color:#4d86e1;stop-opacity:1;" offset="0.988281"/><stop style="stop-color:#4c86e1;stop-opacity:1;" offset="0.992188"/><stop style="stop-color:#4c86e1;stop-opacity:1;" offset="0.996094"/><stop style="stop-color:#4b85e1;stop-opacity:1;" offset="1"/></linearGradient><clipPath id="3e51e1e8dd"><path d="M 1305 607.023438 L 1330.949219 607.023438 L 1330.949219 633 L 1305 633 Z M 1305 607.023438 "/></clipPath><clipPath id="1b1e6cd8c8"><path d="M 1279 630 L 1324 630 L 1324 674.523438 L 1279 674.523438 Z M 1279 630 "/></clipPath><clipPath id="567339c328"><path d="M 1278.8125 628 L 1290 628 L 1290 639 L 1278.8125 639 Z M 1278.8125 628 "/></clipPath><clipPath id="a4348558f7"><path d="M 518.566406 182.140625 L 562 182.140625 L 562 226 L 518.566406 226 Z M 518.566406 182.140625 "/></clipPath><clipPath id="847196c02d"><path d="M 530 221 L 606 221 L 606 296.890625 L 530 296.890625 Z M 530 221 "/></clipPath><clipPath id="ae051640a8"><path d="M 588 217 L 607.066406 217 L 607.066406 237 L 588 237 Z M 588 217 "/></clipPath><filter x="0%" y="0%" width="100%" filterUnits="objectBoundingBox" id="95f55c46cd" height="100%"><feColorMatrix values="0 0 0 0 1 0 0 0 0 1 0 0 0 0 1 0 0 0 1 0" type="matrix" in="SourceGraphic"/></filter><clipPath id="3d8159439a"><path d="M 0.28125 1 L 22.78125 1 L 22.78125 23.375 L 0.28125 23.375 Z M 0.28125 1 "/></clipPath><clipPath id="5dc1677afe"><path d="M 0.28125 0.875 L 22.78125 0.875 L 22.78125 23.375 L 0.28125 23.375 Z M 0.28125 0.875 "/></clipPath><clipPath id="c8f95379f6"><rect x="0" width="23" y="0" height="24"/></clipPath><clipPath id="4005febb3f"><path d="M 1 1 L 37 1 L 37 37.519531 L 1 37.519531 Z M 1 1 "/></clipPath><clipPath id="52cde43b9d"><path d="M 0.640625 0.917969 L 37.183594 0.917969 L 37.183594 37.519531 L 0.640625 37.519531 Z M 0.640625 0.917969 "/></clipPath><clipPath id="981e47b78d"><rect x="0" width="38" y="0" height="38"/></clipPath></defs><g id="85c96e100e"><rect x="0" width="1440" y="0" height="809.999993" style="fill:#ffffff;fill-opacity:1;stroke:none;"/><rect x="0" width="1440" y="0" height="809.999993" style="fill:url(#4ef17352e4);stroke:none;"/><g clip-rule="nonzero" clip-path="url(#3e51e1e8dd)"><path style=" stroke:none;fill-rule:nonzero;fill:#3779e1;fill-opacity:1;" d="M 1318.214844 632.441406 C 1320.25 632.441406 1321.90625 630.785156 1321.90625 628.75 L 1321.90625 623.421875 L 1327.234375 623.421875 C 1329.269531 623.421875 1330.925781 621.765625 1330.925781 619.730469 C 1330.925781 618.746094 1330.539062 617.820312 1329.84375 617.125 C 1329.148438 616.425781 1328.222656 616.042969 1327.234375 616.042969 L 1321.90625 616.042969 L 1321.90625 610.710938 C 1321.90625 608.679688 1320.25 607.023438 1318.214844 607.023438 C 1317.230469 607.023438 1316.304688 607.40625 1315.609375 608.105469 C 1314.910156 608.800781 1314.527344 609.726562 1314.527344 610.710938 L 1314.527344 616.042969 L 1309.195312 616.042969 C 1307.160156 616.042969 1305.507812 617.699219 1305.507812 619.730469 C 1305.507812 621.761719 1307.164062 623.417969 1309.195312 623.417969 L 1314.527344 623.417969 L 1314.527344 628.75 C 1314.527344 630.785156 1316.183594 632.4375 1318.214844 632.4375 Z M 1327.234375 616.75 C 1328.035156 616.75 1328.78125 617.0625 1329.34375 617.625 C 1329.90625 618.183594 1330.214844 618.933594 1330.214844 619.730469 C 1330.214844 621.375 1328.878906 622.710938 1327.238281 622.710938 L 1321.550781 622.710938 C 1321.355469 622.710938 1321.195312 622.871094 1321.195312 623.0625 L 1321.195312 628.75 C 1321.195312 630.394531 1319.859375 631.730469 1318.214844 631.730469 C 1316.574219 631.730469 1315.238281 630.394531 1315.238281 628.75 L 1315.238281 623.0625 C 1315.238281 622.871094 1315.078125 622.710938 1314.882812 622.710938 L 1309.199219 622.710938 C 1307.554688 622.710938 1306.21875 621.375 1306.21875 619.730469 C 1306.21875 618.085938 1307.554688 616.75 1309.199219 616.75 L 1314.882812 616.75 C 1315.078125 616.75 1315.238281 616.59375 1315.238281 616.398438 L 1315.238281 610.710938 C 1315.238281 609.914062 1315.546875 609.164062 1316.109375 608.605469 C 1316.671875 608.042969 1317.417969 607.730469 1318.214844 607.730469 C 1319.859375 607.730469 1321.195312 609.070312 1321.195312 610.710938 L 1321.195312 616.398438 C 1321.195312 616.59375 1321.355469 616.75 1321.550781 616.75 Z M 1327.234375 616.75 "/></g><g clip-rule="nonzero" clip-path="url(#1b1e6cd8c8)"><path style=" stroke:none;fill-rule:nonzero;fill:#3779e1;fill-opacity:1;" d="M 1279.527344 652.351562 C 1279.527344 655.644531 1282.195312 658.304688 1285.480469 658.304688 L 1295.636719 658.304688 L 1295.636719 668.460938 C 1295.636719 671.75 1298.300781 674.414062 1301.589844 674.414062 C 1304.875 674.414062 1307.542969 671.746094 1307.542969 668.460938 L 1307.542969 658.304688 L 1317.695312 658.304688 C 1320.984375 658.304688 1323.648438 655.640625 1323.648438 652.351562 C 1323.648438 650.707031 1322.980469 649.21875 1321.90625 648.144531 C 1320.828125 647.066406 1319.339844 646.398438 1317.695312 646.398438 L 1307.542969 646.398438 L 1307.542969 636.246094 C 1307.542969 632.957031 1304.875 630.292969 1301.589844 630.292969 C 1299.945312 630.292969 1298.457031 630.960938 1297.378906 632.039062 C 1296.300781 633.113281 1295.636719 634.601562 1295.636719 636.246094 L 1295.636719 646.398438 L 1285.480469 646.398438 C 1282.191406 646.398438 1279.527344 649.066406 1279.527344 652.351562 Z M 1279.527344 652.351562 "/></g><g clip-rule="nonzero" clip-path="url(#567339c328)"><path style=" stroke:none;fill-rule:nonzero;fill:#3779e1;fill-opacity:1;" d="M 1284.1875 638.847656 C 1285.125 638.847656 1285.890625 638.082031 1285.890625 637.144531 L 1285.890625 635.195312 L 1287.835938 635.195312 C 1288.773438 635.195312 1289.539062 634.433594 1289.539062 633.492188 C 1289.539062 633.035156 1289.363281 632.609375 1289.039062 632.289062 C 1288.71875 631.964844 1288.289062 631.789062 1287.835938 631.789062 L 1285.886719 631.789062 L 1285.886719 629.839844 C 1285.886719 628.902344 1285.125 628.136719 1284.183594 628.136719 C 1283.730469 628.136719 1283.300781 628.316406 1282.980469 628.636719 C 1282.660156 628.957031 1282.480469 629.386719 1282.480469 629.839844 L 1282.480469 631.789062 L 1280.535156 631.789062 C 1279.597656 631.789062 1278.832031 632.554688 1278.832031 633.492188 C 1278.832031 634.433594 1279.597656 635.195312 1280.535156 635.195312 L 1282.480469 635.195312 L 1282.480469 637.144531 C 1282.480469 638.082031 1283.246094 638.847656 1284.183594 638.847656 Z M 1287.835938 632.496094 C 1288.101562 632.496094 1288.351562 632.597656 1288.542969 632.785156 C 1288.730469 632.976562 1288.832031 633.226562 1288.832031 633.492188 C 1288.832031 634.039062 1288.386719 634.484375 1287.839844 634.484375 L 1285.539062 634.484375 C 1285.34375 634.484375 1285.183594 634.644531 1285.183594 634.839844 L 1285.183594 637.140625 C 1285.183594 637.6875 1284.738281 638.136719 1284.191406 638.136719 C 1283.640625 638.136719 1283.195312 637.6875 1283.195312 637.140625 L 1283.195312 634.839844 C 1283.195312 634.644531 1283.035156 634.484375 1282.839844 634.484375 L 1280.539062 634.484375 C 1279.992188 634.484375 1279.546875 634.039062 1279.546875 633.492188 C 1279.546875 632.941406 1279.992188 632.496094 1280.539062 632.496094 L 1282.839844 632.496094 C 1283.035156 632.496094 1283.195312 632.335938 1283.195312 632.140625 L 1283.195312 629.839844 C 1283.195312 629.574219 1283.296875 629.324219 1283.488281 629.136719 C 1283.675781 628.949219 1283.925781 628.84375 1284.191406 628.84375 C 1284.738281 628.84375 1285.183594 629.289062 1285.183594 629.839844 L 1285.183594 632.140625 C 1285.183594 632.335938 1285.34375 632.496094 1285.539062 632.496094 L 1287.839844 632.496094 Z M 1287.835938 632.496094 "/></g><g clip-rule="nonzero" clip-path="url(#a4348558f7)"><path style=" stroke:none;fill-rule:nonzero;fill:#3779e1;fill-opacity:1;" d="M 540.179688 225.28125 C 536.726562 225.28125 533.921875 222.472656 533.921875 219.023438 L 533.921875 209.972656 L 524.871094 209.972656 C 521.417969 209.972656 518.609375 207.164062 518.609375 203.714844 C 518.609375 202.039062 519.265625 200.46875 520.445312 199.285156 C 521.625 198.105469 523.199219 197.449219 524.871094 197.449219 L 533.921875 197.449219 L 533.921875 188.402344 C 533.921875 184.953125 536.730469 182.140625 540.179688 182.140625 C 541.855469 182.140625 543.425781 182.796875 544.609375 183.976562 C 545.789062 185.15625 546.441406 186.730469 546.441406 188.402344 L 546.441406 197.449219 L 555.492188 197.449219 C 558.945312 197.449219 561.753906 200.261719 561.753906 203.710938 C 561.753906 207.160156 558.941406 209.972656 555.492188 209.972656 L 546.441406 209.972656 L 546.441406 219.019531 C 546.441406 222.472656 543.632812 225.28125 540.183594 225.28125 Z M 524.871094 198.65625 C 523.519531 198.65625 522.25 199.179688 521.292969 200.132812 C 520.339844 201.089844 519.8125 202.359375 519.8125 203.710938 C 519.8125 206.5 522.078125 208.769531 524.867188 208.769531 L 534.523438 208.769531 C 534.851562 208.769531 535.125 209.039062 535.125 209.371094 L 535.125 219.019531 C 535.125 221.808594 537.390625 224.078125 540.179688 224.078125 C 542.96875 224.078125 545.238281 221.808594 545.238281 219.019531 L 545.238281 209.371094 C 545.238281 209.039062 545.507812 208.769531 545.839844 208.769531 L 555.488281 208.769531 C 558.277344 208.769531 560.546875 206.5 560.546875 203.710938 C 560.546875 200.921875 558.277344 198.65625 555.488281 198.65625 L 545.839844 198.65625 C 545.507812 198.65625 545.238281 198.382812 545.238281 198.050781 L 545.238281 188.402344 C 545.238281 187.046875 544.710938 185.777344 543.757812 184.828125 C 542.804688 183.871094 541.535156 183.34375 540.179688 183.34375 C 537.390625 183.34375 535.125 185.613281 535.125 188.402344 L 535.125 198.050781 C 535.125 198.382812 534.851562 198.65625 534.523438 198.65625 Z M 524.871094 198.65625 "/></g><g clip-rule="nonzero" clip-path="url(#847196c02d)"><path style=" stroke:none;fill-rule:nonzero;fill:#3779e1;fill-opacity:1;" d="M 605.847656 259.082031 C 605.847656 264.667969 601.320312 269.1875 595.742188 269.1875 L 578.507812 269.1875 L 578.507812 286.421875 C 578.507812 292.003906 573.984375 296.527344 568.402344 296.527344 C 562.824219 296.527344 558.296875 292.003906 558.296875 286.421875 L 558.296875 269.1875 L 541.066406 269.1875 C 535.480469 269.1875 530.960938 264.664062 530.960938 259.082031 C 530.960938 256.292969 532.089844 253.765625 533.921875 251.9375 C 535.746094 250.109375 538.273438 248.980469 541.066406 248.980469 L 558.296875 248.980469 L 558.296875 231.746094 C 558.296875 226.160156 562.824219 221.640625 568.402344 221.640625 C 571.195312 221.640625 573.722656 222.769531 575.546875 224.601562 C 577.375 226.425781 578.507812 228.953125 578.507812 231.746094 L 578.507812 248.980469 L 595.742188 248.980469 C 601.324219 248.980469 605.847656 253.503906 605.847656 259.082031 Z M 605.847656 259.082031 "/></g><g clip-rule="nonzero" clip-path="url(#ae051640a8)"><path style=" stroke:none;fill-rule:nonzero;fill:#3779e1;fill-opacity:1;" d="M 597.941406 236.15625 C 596.347656 236.15625 595.050781 234.859375 595.050781 233.265625 L 595.050781 229.960938 L 591.746094 229.960938 C 590.152344 229.960938 588.855469 228.664062 588.855469 227.070312 C 588.855469 226.296875 589.15625 225.570312 589.703125 225.023438 C 590.25 224.480469 590.976562 224.179688 591.75 224.179688 L 595.054688 224.179688 L 595.054688 220.871094 C 595.054688 219.277344 596.351562 217.980469 597.945312 217.980469 C 598.71875 217.980469 599.445312 218.28125 599.988281 218.832031 C 600.535156 219.375 600.835938 220.101562 600.835938 220.871094 L 600.835938 224.179688 L 604.136719 224.179688 C 605.730469 224.179688 607.027344 225.476562 607.027344 227.070312 C 607.027344 228.664062 605.730469 229.960938 604.136719 229.960938 L 600.835938 229.960938 L 600.835938 233.265625 C 600.835938 234.859375 599.539062 236.15625 597.945312 236.15625 Z M 591.742188 225.378906 C 591.292969 225.378906 590.867188 225.554688 590.550781 225.871094 C 590.230469 226.191406 590.054688 226.617188 590.054688 227.066406 C 590.054688 228 590.8125 228.753906 591.742188 228.753906 L 595.644531 228.753906 C 595.976562 228.753906 596.246094 229.023438 596.246094 229.355469 L 596.246094 233.265625 C 596.246094 234.195312 597.003906 234.953125 597.933594 234.953125 C 598.863281 234.953125 599.621094 234.195312 599.621094 233.265625 L 599.621094 229.355469 C 599.621094 229.023438 599.894531 228.753906 600.222656 228.753906 L 604.128906 228.753906 C 605.0625 228.753906 605.816406 227.996094 605.816406 227.066406 C 605.816406 226.136719 605.058594 225.378906 604.128906 225.378906 L 600.222656 225.378906 C 599.894531 225.378906 599.621094 225.109375 599.621094 224.777344 L 599.621094 220.871094 C 599.621094 220.417969 599.449219 219.996094 599.128906 219.675781 C 598.808594 219.355469 598.386719 219.179688 597.933594 219.179688 C 597.003906 219.179688 596.246094 219.9375 596.246094 220.867188 L 596.246094 224.773438 C 596.246094 225.105469 595.976562 225.375 595.644531 225.375 L 591.742188 225.375 Z M 591.742188 225.378906 "/></g><g mask="url(#33efab919a)" transform="matrix(1,0,0,1,39,360)"><g clip-path="url(#c8f95379f6)"><g clip-rule="nonzero" clip-path="url(#3d8159439a)"><path style=" stroke:none;fill-rule:nonzero;fill:#3779e1;fill-opacity:1;" d="M 14.867188 22.796875 L 14.867188 15.457031 L 22.203125 15.457031 C 22.453125 15.457031 22.648438 15.261719 22.648438 15.015625 L 22.648438 9.234375 C 22.648438 8.984375 22.453125 8.789062 22.203125 8.789062 L 14.867188 8.789062 L 14.867188 1.453125 C 14.867188 1.203125 14.671875 1.007812 14.421875 1.007812 L 8.640625 1.007812 C 8.394531 1.007812 8.199219 1.203125 8.199219 1.453125 L 8.199219 8.789062 L 0.859375 8.789062 C 0.613281 8.789062 0.417969 8.984375 0.417969 9.234375 L 0.417969 15.015625 C 0.417969 15.261719 0.613281 15.457031 0.859375 15.457031 L 8.199219 15.457031 L 8.199219 22.796875 C 8.199219 23.042969 8.394531 23.242188 8.640625 23.242188 L 14.421875 23.242188 C 14.671875 23.242188 14.867188 23.042969 14.867188 22.796875 Z M 14.867188 22.796875 "/></g><g clip-rule="nonzero" clip-path="url(#5dc1677afe)"><path style=" stroke:none;fill-rule:nonzero;fill:#3779e1;fill-opacity:1;" d="M 0.28125 15.015625 L 0.28125 9.234375 C 0.28125 8.914062 0.539062 8.65625 0.859375 8.65625 L 8.0625 8.65625 L 8.0625 1.453125 C 8.0625 1.132812 8.320312 0.875 8.640625 0.875 L 14.421875 0.875 C 14.742188 0.875 15 1.132812 15 1.453125 L 15 8.65625 L 22.203125 8.65625 C 22.523438 8.65625 22.78125 8.914062 22.78125 9.234375 L 22.78125 15.015625 C 22.78125 15.335938 22.523438 15.59375 22.203125 15.59375 L 15 15.59375 L 15 22.796875 C 15 23.117188 14.742188 23.375 14.421875 23.375 L 8.640625 23.375 C 8.320312 23.375 8.0625 23.117188 8.0625 22.796875 L 8.0625 15.59375 L 0.859375 15.59375 C 0.539062 15.59375 0.28125 15.335938 0.28125 15.015625 Z M 14.734375 1.453125 C 14.734375 1.28125 14.59375 1.140625 14.421875 1.140625 L 8.640625 1.140625 C 8.472656 1.140625 8.332031 1.28125 8.332031 1.453125 L 8.332031 8.789062 C 8.332031 8.859375 8.269531 8.921875 8.199219 8.921875 L 0.859375 8.921875 C 0.691406 8.921875 0.550781 9.066406 0.550781 9.234375 L 0.550781 15.015625 C 0.550781 15.183594 0.691406 15.324219 0.859375 15.324219 L 8.199219 15.324219 C 8.269531 15.324219 8.332031 15.386719 8.332031 15.457031 L 8.332031 22.796875 C 8.332031 22.964844 8.472656 23.105469 8.640625 23.105469 L 14.421875 23.105469 C 14.59375 23.105469 14.734375 22.964844 14.734375 22.796875 L 14.734375 15.457031 C 14.734375 15.386719 14.796875 15.324219 14.867188 15.324219 L 22.203125 15.324219 C 22.375 15.324219 22.515625 15.183594 22.515625 15.015625 L 22.515625 9.234375 C 22.515625 9.066406 22.375 8.921875 22.203125 8.921875 L 14.867188 8.921875 C 14.796875 8.921875 14.734375 8.859375 14.734375 8.789062 Z M 14.734375 1.453125 "/></g></g><mask id="33efab919a"><g filter="url(#95f55c46cd)"><rect x="0" width="1440" y="0" height="809.999993" style="fill:#000000;fill-opacity:0.2;stroke:none;"/></g></mask></g><g mask="url(#d96511f239)" transform="matrix(1,0,0,1,1340,268)"><g clip-path="url(#981e47b78d)"><g clip-rule="nonzero" clip-path="url(#4005febb3f)"><path style=" stroke:none;fill-rule:nonzero;fill:#3779e1;fill-opacity:1;" d="M 24.386719 36.355469 L 24.386719 24.496094 L 36.25 24.496094 C 36.652344 24.496094 36.96875 24.179688 36.96875 23.777344 L 36.96875 14.429688 C 36.96875 14.027344 36.652344 13.710938 36.25 13.710938 L 24.386719 13.710938 L 24.386719 1.851562 C 24.386719 1.449219 24.070312 1.132812 23.667969 1.132812 L 14.324219 1.132812 C 13.921875 1.132812 13.605469 1.449219 13.605469 1.851562 L 13.605469 13.710938 L 1.742188 13.710938 C 1.339844 13.710938 1.023438 14.027344 1.023438 14.429688 L 1.023438 23.777344 C 1.023438 24.179688 1.339844 24.496094 1.742188 24.496094 L 13.605469 24.496094 L 13.605469 36.355469 C 13.605469 36.761719 13.921875 37.074219 14.324219 37.074219 L 23.667969 37.074219 C 24.070312 37.074219 24.386719 36.761719 24.386719 36.355469 Z M 24.386719 36.355469 "/></g><g clip-rule="nonzero" clip-path="url(#52cde43b9d)"><path style=" stroke:none;fill-rule:nonzero;fill:#3779e1;fill-opacity:1;" d="M 0.808594 23.777344 L 0.808594 14.429688 C 0.808594 13.914062 1.226562 13.496094 1.742188 13.496094 L 13.386719 13.496094 L 13.386719 1.851562 C 13.386719 1.332031 13.804688 0.917969 14.324219 0.917969 L 23.667969 0.917969 C 24.1875 0.917969 24.601562 1.332031 24.601562 1.851562 L 24.601562 13.496094 L 36.25 13.496094 C 36.765625 13.496094 37.183594 13.914062 37.183594 14.429688 L 37.183594 23.777344 C 37.183594 24.292969 36.765625 24.710938 36.25 24.710938 L 24.601562 24.710938 L 24.601562 36.355469 C 24.601562 36.875 24.1875 37.292969 23.667969 37.292969 L 14.324219 37.292969 C 13.804688 37.292969 13.386719 36.875 13.386719 36.355469 L 13.386719 24.710938 L 1.742188 24.710938 C 1.226562 24.710938 0.808594 24.292969 0.808594 23.777344 Z M 24.171875 1.851562 C 24.171875 1.578125 23.941406 1.347656 23.667969 1.347656 L 14.324219 1.347656 C 14.050781 1.347656 13.820312 1.578125 13.820312 1.851562 L 13.820312 13.710938 C 13.820312 13.828125 13.71875 13.929688 13.605469 13.929688 L 1.742188 13.929688 C 1.46875 13.929688 1.238281 14.160156 1.238281 14.429688 L 1.238281 23.777344 C 1.238281 24.050781 1.46875 24.28125 1.742188 24.28125 L 13.605469 24.28125 C 13.71875 24.28125 13.820312 24.378906 13.820312 24.496094 L 13.820312 36.355469 C 13.820312 36.628906 14.050781 36.859375 14.324219 36.859375 L 23.667969 36.859375 C 23.941406 36.859375 24.171875 36.628906 24.171875 36.355469 L 24.171875 24.496094 C 24.171875 24.378906 24.273438 24.28125 24.386719 24.28125 L 36.25 24.28125 C 36.523438 24.28125 36.75 24.050781 36.75 23.777344 L 36.75 14.429688 C 36.75 14.160156 36.523438 13.929688 36.25 13.929688 L 24.386719 13.929688 C 24.273438 13.929688 24.171875 13.828125 24.171875 13.710938 Z M 24.171875 1.851562 "/></g></g><mask id="d96511f239"><g filter="url(#95f55c46cd)"><rect x="0" width="1440" y="0" height="809.999993" style="fill:#000000;fill-opacity:0.2;stroke:none;"/></g></mask></g></g></svg>